<svg width="158" height="47" viewBox="0 0 158 47" fill="none" xmlns="http://www.w3.org/2000/svg">
<path d="M56.9469 27.5209L48.5044 25.1473L47.938 16.3958L65.7153 2.00005L74.7242 13.1251L56.9469 27.5209Z" fill="#2401FE"/>
<path d="M63.9469 26.5209L55.5044 24.1473L54.938 15.3958L72.7153 1.00005L81.7242 12.1251L63.9469 26.5209Z" fill="#564AA2"/>
<path d="M71.9469 25.5209L63.5044 23.1473L62.938 14.3958L80.7153 4.96198e-05L89.7242 11.1251L71.9469 25.5209Z" fill="#3716FF"/>
<path d="M1.185 10.75H5.22V11.185H1.68V17.305H4.635V17.74H1.68V21.565H5.22V22H1.185V10.75ZM6.55535 15.25H7.03535V16.75C7.25535 16.25 7.63035 15.85 8.16035 15.55C8.69035 15.24 9.27535 15.085 9.91535 15.085C10.7454 15.085 11.4004 15.35 11.8804 15.88C12.3704 16.4 12.6154 17.13 12.6154 18.07V22H12.1354V18.07C12.1354 17.26 11.9354 16.63 11.5354 16.18C11.1454 15.73 10.5954 15.505 9.88535 15.505C9.36535 15.505 8.88535 15.625 8.44535 15.865C8.01535 16.095 7.67035 16.415 7.41035 16.825C7.16035 17.235 7.03535 17.7 7.03535 18.22V22H6.55535V15.25ZM17.7645 25.12C17.1945 25.12 16.6395 24.99 16.0995 24.73C15.5595 24.47 15.1395 24.13 14.8395 23.71V23.02C15.0995 23.5 15.5045 23.9 16.0545 24.22C16.6145 24.54 17.1845 24.7 17.7645 24.7C18.7245 24.7 19.4645 24.415 19.9845 23.845C20.5045 23.285 20.7645 22.46 20.7645 21.37V20.365C20.4945 20.905 20.0695 21.345 19.4895 21.685C18.9195 22.015 18.3195 22.18 17.6895 22.18C17.0495 22.18 16.4545 22.02 15.9045 21.7C15.3545 21.38 14.9195 20.95 14.5995 20.41C14.2795 19.86 14.1195 19.27 14.1195 18.64C14.1195 18.01 14.2795 17.425 14.5995 16.885C14.9195 16.335 15.3545 15.9 15.9045 15.58C16.4545 15.26 17.0495 15.1 17.6895 15.1C18.3495 15.1 18.9595 15.265 19.5195 15.595C20.0795 15.925 20.4945 16.37 20.7645 16.93V15.25H21.2445V21.37C21.2445 22.6 20.9445 23.53 20.3445 24.16C19.7545 24.8 18.8945 25.12 17.7645 25.12ZM17.7195 21.76C18.2695 21.76 18.7795 21.62 19.2495 21.34C19.7195 21.05 20.0895 20.67 20.3595 20.2C20.6395 19.72 20.7795 19.2 20.7795 18.64C20.7795 18.08 20.6395 17.565 20.3595 17.095C20.0895 16.615 19.7195 16.235 19.2495 15.955C18.7795 15.665 18.2695 15.52 17.7195 15.52C17.1595 15.52 16.6395 15.665 16.1595 15.955C15.6895 16.235 15.3095 16.615 15.0195 17.095C14.7395 17.565 14.5995 18.08 14.5995 18.64C14.5995 19.2 14.7395 19.72 15.0195 20.2C15.3095 20.67 15.6895 21.05 16.1595 21.34C16.6395 21.62 17.1595 21.76 17.7195 21.76ZM25.7024 22.135C25.2324 22.135 24.8024 22.03 24.4124 21.82C24.0224 21.6 23.7124 21.295 23.4824 20.905C23.2524 20.515 23.1374 20.08 23.1374 19.6V10.75H23.6174V19.6C23.6174 20 23.7074 20.36 23.8874 20.68C24.0774 21 24.3324 21.255 24.6524 21.445C24.9724 21.625 25.3224 21.715 25.7024 21.715V22.135ZM27.8386 13.705C27.6986 13.705 27.5736 13.655 27.4636 13.555C27.3636 13.455 27.3136 13.33 27.3136 13.18C27.3136 13.04 27.3636 12.92 27.4636 12.82C27.5736 12.72 27.6986 12.67 27.8386 12.67C27.9786 12.67 28.0986 12.72 28.1986 12.82C28.3086 12.92 28.3636 13.04 28.3636 13.18C28.3636 13.33 28.3086 13.455 28.1986 13.555C28.0986 13.655 27.9786 13.705 27.8386 13.705ZM27.5986 15.25H28.0786V22H27.5986V15.25ZM31.9501 22.165C31.4701 22.165 31.0451 22.085 30.6751 21.925C30.3051 21.755 30.0401 21.54 29.8801 21.28V20.485C30.0701 20.915 30.3301 21.235 30.6601 21.445C30.9901 21.645 31.4101 21.745 31.9201 21.745C32.4101 21.745 32.8051 21.595 33.1051 21.295C33.4051 20.985 33.5551 20.59 33.5551 20.11C33.5551 19.7 33.4701 19.385 33.3001 19.165C33.1301 18.935 32.8551 18.705 32.4751 18.475L31.9051 18.145C31.4951 17.895 31.1851 17.7 30.9751 17.56C30.7751 17.41 30.6151 17.245 30.4951 17.065C30.3751 16.875 30.3151 16.655 30.3151 16.405C30.3151 16.005 30.4551 15.685 30.7351 15.445C31.0151 15.205 31.3801 15.085 31.8301 15.085C32.3801 15.085 32.8401 15.21 33.2101 15.46V16.12C32.9001 15.71 32.4551 15.505 31.8751 15.505C31.5551 15.505 31.2951 15.585 31.0951 15.745C30.8951 15.905 30.7951 16.11 30.7951 16.36C30.7951 16.58 30.8551 16.775 30.9751 16.945C31.0951 17.105 31.2601 17.255 31.4701 17.395C31.6901 17.535 32.0501 17.745 32.5501 18.025C33.0601 18.315 33.4351 18.615 33.6751 18.925C33.9151 19.225 34.0351 19.62 34.0351 20.11C34.0351 20.73 33.8301 21.23 33.4201 21.61C33.0201 21.98 32.5301 22.165 31.9501 22.165ZM35.53 10.75H36.01V16.645C36.22 16.195 36.575 15.825 37.075 15.535C37.585 15.235 38.1 15.085 38.62 15.085C39.57 15.085 40.3 15.345 40.81 15.865C41.33 16.385 41.59 17.12 41.59 18.07V22H41.11V18.07C41.11 17.25 40.89 16.62 40.45 16.18C40.02 15.73 39.41 15.505 38.62 15.505C38.14 15.505 37.7 15.62 37.3 15.85C36.9 16.07 36.585 16.38 36.355 16.78C36.125 17.17 36.01 17.6 36.01 18.07V22H35.53V10.75ZM1.185 27.75H1.665C3.455 27.75 4.835 28.24 5.805 29.22C6.785 30.19 7.275 31.575 7.275 33.375C7.275 34.405 7.025 35.35 6.525 36.21C6.025 37.07 5.345 37.75 4.485 38.25C3.635 38.75 2.695 39 1.665 39H1.185V27.75ZM1.785 38.535C2.705 38.535 3.545 38.31 4.305 37.86C5.065 37.4 5.665 36.775 6.105 35.985C6.555 35.195 6.78 34.325 6.78 33.375C6.78 31.715 6.345 30.44 5.475 29.55C4.615 28.65 3.385 28.2 1.785 28.2H1.665V38.535H1.785ZM8.9284 32.25H9.4084V33.81C9.6084 33.32 9.8984 32.935 10.2784 32.655C10.6684 32.375 11.1084 32.235 11.5984 32.235C11.9084 32.235 12.2234 32.3 12.5434 32.43V32.985C12.2534 32.765 11.9284 32.655 11.5684 32.655C11.2084 32.655 10.8584 32.765 10.5184 32.985C10.1884 33.205 9.9184 33.5 9.7084 33.87C9.5084 34.24 9.4084 34.635 9.4084 35.055V39H8.9284V32.25ZM16.564 38.76C17.084 38.76 17.579 38.625 18.049 38.355C18.519 38.085 18.909 37.715 19.219 37.245V38.01C18.849 38.42 18.444 38.72 18.004 38.91C17.564 39.09 17.064 39.18 16.504 39.18C15.884 39.18 15.299 39.015 14.749 38.685C14.209 38.355 13.774 37.915 13.444 37.365C13.124 36.815 12.964 36.23 12.964 35.61C12.964 34.94 13.124 34.34 13.444 33.81C13.764 33.27 14.199 32.85 14.749 32.55C15.309 32.25 15.929 32.1 16.609 32.1C17.649 32.1 18.534 32.51 19.264 33.33L14.554 37.98C14.884 38.25 15.204 38.45 15.514 38.58C15.824 38.7 16.174 38.76 16.564 38.76ZM13.444 35.565C13.444 36.395 13.719 37.105 14.269 37.695L18.664 33.33C18.334 33.04 18.014 32.835 17.704 32.715C17.394 32.585 17.024 32.52 16.594 32.52C15.984 32.52 15.439 32.655 14.959 32.925C14.489 33.185 14.119 33.545 13.849 34.005C13.579 34.465 13.444 34.985 13.444 35.565ZM23.9443 39.165C23.3043 39.165 22.7093 39.005 22.1593 38.685C21.6093 38.365 21.1743 37.935 20.8543 37.395C20.5343 36.845 20.3743 36.255 20.3743 35.625C20.3743 34.995 20.5343 34.41 20.8543 33.87C21.1743 33.32 21.6093 32.885 22.1593 32.565C22.7093 32.245 23.3043 32.085 23.9443 32.085C24.5943 32.085 25.2093 32.26 25.7893 32.61C26.3693 32.95 26.7743 33.395 27.0043 33.945V32.25H27.4843V39H27.0043V37.32C26.7343 37.88 26.3143 38.33 25.7443 38.67C25.1843 39 24.5843 39.165 23.9443 39.165ZM23.9743 38.745C24.5243 38.745 25.0343 38.605 25.5043 38.325C25.9743 38.035 26.3443 37.655 26.6143 37.185C26.8943 36.705 27.0343 36.185 27.0343 35.625C27.0343 35.075 26.8943 34.56 26.6143 34.08C26.3343 33.6 25.9593 33.22 25.4893 32.94C25.0193 32.65 24.5093 32.505 23.9593 32.505C23.4093 32.505 22.8943 32.65 22.4143 32.94C21.9443 33.23 21.5643 33.615 21.2743 34.095C20.9943 34.575 20.8543 35.09 20.8543 35.64C20.8543 36.19 20.9943 36.705 21.2743 37.185C21.5643 37.655 21.9493 38.035 22.4293 38.325C22.9093 38.605 23.4243 38.745 23.9743 38.745ZM29.3776 32.25H29.8576V33.27C30.3176 32.48 31.0576 32.085 32.0776 32.085C32.5676 32.085 32.9926 32.225 33.3526 32.505C33.7126 32.775 33.9626 33.185 34.1026 33.735C34.2326 33.245 34.5176 32.85 34.9576 32.55C35.4076 32.24 35.9126 32.085 36.4726 32.085C37.2026 32.085 37.7676 32.3 38.1676 32.73C38.5676 33.15 38.7676 33.75 38.7676 34.53V39H38.2876V34.53C38.2876 33.9 38.1226 33.405 37.7926 33.045C37.4726 32.685 37.0476 32.505 36.5176 32.505C36.1176 32.505 35.7476 32.605 35.4076 32.805C35.0676 32.995 34.7976 33.255 34.5976 33.585C34.3976 33.915 34.2976 34.28 34.2976 34.68V39H33.8176V34.8C33.8176 34.08 33.6476 33.52 33.3076 33.12C32.9676 32.71 32.5276 32.505 31.9876 32.505C31.6276 32.505 31.2826 32.595 30.9526 32.775C30.6326 32.955 30.3676 33.2 30.1576 33.51C29.9576 33.81 29.8576 34.14 29.8576 34.5V39H29.3776V32.25ZM45.9178 28.185H43.3228V27.75H48.9778V28.185H46.4128V39H45.9178V28.185ZM52.3501 38.76C52.8701 38.76 53.3651 38.625 53.8351 38.355C54.3051 38.085 54.6951 37.715 55.0051 37.245V38.01C54.6351 38.42 54.2301 38.72 53.7901 38.91C53.3501 39.09 52.8501 39.18 52.2901 39.18C51.6701 39.18 51.0851 39.015 50.5351 38.685C49.9951 38.355 49.5601 37.915 49.2301 37.365C48.9101 36.815 48.7501 36.23 48.7501 35.61C48.7501 34.94 48.9101 34.34 49.2301 33.81C49.5501 33.27 49.9851 32.85 50.5351 32.55C51.0951 32.25 51.7151 32.1 52.3951 32.1C53.4351 32.1 54.3201 32.51 55.0501 33.33L50.3401 37.98C50.6701 38.25 50.9901 38.45 51.3001 38.58C51.6101 38.7 51.9601 38.76 52.3501 38.76ZM49.2301 35.565C49.2301 36.395 49.5051 37.105 50.0551 37.695L54.4501 33.33C54.1201 33.04 53.8001 32.835 53.4901 32.715C53.1801 32.585 52.8101 32.52 52.3801 32.52C51.7701 32.52 51.2251 32.655 50.7451 32.925C50.2751 33.185 49.9051 33.545 49.6351 34.005C49.3651 34.465 49.2301 34.985 49.2301 35.565ZM59.7305 39.165C59.0905 39.165 58.4955 39.005 57.9455 38.685C57.3955 38.365 56.9605 37.935 56.6405 37.395C56.3205 36.845 56.1605 36.255 56.1605 35.625C56.1605 34.995 56.3205 34.41 56.6405 33.87C56.9605 33.32 57.3955 32.885 57.9455 32.565C58.4955 32.245 59.0905 32.085 59.7305 32.085C60.3805 32.085 60.9955 32.26 61.5755 32.61C62.1555 32.95 62.5605 33.395 62.7905 33.945V32.25H63.2705V39H62.7905V37.32C62.5205 37.88 62.1005 38.33 61.5305 38.67C60.9705 39 60.3705 39.165 59.7305 39.165ZM59.7605 38.745C60.3105 38.745 60.8205 38.605 61.2905 38.325C61.7605 38.035 62.1305 37.655 62.4005 37.185C62.6805 36.705 62.8205 36.185 62.8205 35.625C62.8205 35.075 62.6805 34.56 62.4005 34.08C62.1205 33.6 61.7455 33.22 61.2755 32.94C60.8055 32.65 60.2955 32.505 59.7455 32.505C59.1955 32.505 58.6805 32.65 58.2005 32.94C57.7305 33.23 57.3505 33.615 57.0605 34.095C56.7805 34.575 56.6405 35.09 56.6405 35.64C56.6405 36.19 56.7805 36.705 57.0605 37.185C57.3505 37.655 57.7355 38.035 58.2155 38.325C58.6955 38.605 59.2105 38.745 59.7605 38.745ZM68.3438 39.195C67.6938 39.195 67.0938 39.04 66.5438 38.73C66.0038 38.42 65.5738 37.995 65.2538 37.455C64.9338 36.915 64.7738 36.305 64.7738 35.625C64.7738 34.995 64.9338 34.415 65.2538 33.885C65.5738 33.345 66.0088 32.915 66.5588 32.595C67.1188 32.275 67.7338 32.115 68.4038 32.115C68.9638 32.115 69.4438 32.205 69.8438 32.385C70.2438 32.565 70.6338 32.845 71.0138 33.225V34.035C70.6838 33.545 70.3138 33.175 69.9038 32.925C69.5038 32.665 69.0038 32.535 68.4038 32.535C67.8538 32.535 67.3338 32.68 66.8438 32.97C66.3638 33.25 65.9788 33.63 65.6888 34.11C65.3988 34.59 65.2538 35.105 65.2538 35.655C65.2538 36.255 65.3938 36.795 65.6738 37.275C65.9538 37.745 66.3288 38.115 66.7988 38.385C67.2788 38.645 67.7938 38.775 68.3438 38.775C69.4638 38.775 70.3538 38.27 71.0138 37.26V38.07C70.6538 38.45 70.2538 38.735 69.8138 38.925C69.3838 39.105 68.8938 39.195 68.3438 39.195ZM72.3415 27.75H72.8215V33.645C73.0315 33.195 73.3865 32.825 73.8865 32.535C74.3965 32.235 74.9115 32.085 75.4315 32.085C76.3815 32.085 77.1115 32.345 77.6215 32.865C78.1415 33.385 78.4015 34.12 78.4015 35.07V39H77.9215V35.07C77.9215 34.25 77.7015 33.62 77.2615 33.18C76.8315 32.73 76.2215 32.505 75.4315 32.505C74.9515 32.505 74.5115 32.62 74.1115 32.85C73.7115 33.07 73.3965 33.38 73.1665 33.78C72.9365 34.17 72.8215 34.6 72.8215 35.07V39H72.3415V27.75ZM83.5806 38.76C84.1006 38.76 84.5956 38.625 85.0656 38.355C85.5356 38.085 85.9256 37.715 86.2356 37.245V38.01C85.8656 38.42 85.4606 38.72 85.0206 38.91C84.5806 39.09 84.0806 39.18 83.5206 39.18C82.9006 39.18 82.3156 39.015 81.7656 38.685C81.2256 38.355 80.7906 37.915 80.4606 37.365C80.1406 36.815 79.9806 36.23 79.9806 35.61C79.9806 34.94 80.1406 34.34 80.4606 33.81C80.7806 33.27 81.2156 32.85 81.7656 32.55C82.3256 32.25 82.9456 32.1 83.6256 32.1C84.6656 32.1 85.5506 32.51 86.2806 33.33L81.5706 37.98C81.9006 38.25 82.2206 38.45 82.5306 38.58C82.8406 38.7 83.1906 38.76 83.5806 38.76ZM80.4606 35.565C80.4606 36.395 80.7356 37.105 81.2856 37.695L85.6806 33.33C85.3506 33.04 85.0306 32.835 84.7206 32.715C84.4106 32.585 84.0406 32.52 83.6106 32.52C83.0006 32.52 82.4556 32.655 81.9756 32.925C81.5056 33.185 81.1356 33.545 80.8656 34.005C80.5956 34.465 80.4606 34.985 80.4606 35.565ZM87.7809 32.25H88.2609V33.81C88.4609 33.32 88.7509 32.935 89.1309 32.655C89.5209 32.375 89.9609 32.235 90.4509 32.235C90.7609 32.235 91.0759 32.3 91.3959 32.43V32.985C91.1059 32.765 90.7809 32.655 90.4209 32.655C90.0609 32.655 89.7109 32.765 89.3709 32.985C89.0409 33.205 88.7709 33.5 88.5609 33.87C88.3609 34.24 88.2609 34.635 88.2609 35.055V39H87.7809V32.25Z" fill="#333333"/>
</svg>
