<?xml version="1.0" encoding="UTF-8"?> <svg xmlns="http://www.w3.org/2000/svg" width="2741" height="1254" viewBox="0 0 2741 1254" fill="none"> <path d="M4.48496 507.61C28.5183 330.889 156.532 185.991 328.943 140.358L494.557 96.5249L693.057 53.5249L764.565 28.273C817.507 9.57723 873.244 0.0249066 929.391 0.0249062L1098.06 0.0249051L1480.56 53.5249L1974.06 96.5248L2209.44 133.025C2322.06 150.488 2425.2 206.276 2501.45 290.971L2613.57 415.501C2710.96 523.662 2755.8 669.199 2736.19 813.413L2734.64 824.837C2697.8 1095.72 2448.34 1285.46 2177.45 1248.62L382.404 1004.5C140.832 971.647 -28.3678 749.182 4.48496 507.61V507.61Z" fill="#618EFF"></path> </svg> 